<?xml version="1.0" encoding="UTF-8" standalone="no"?>
<svg width="50px" height="50px" viewBox="0 0 50 50" version="1.1" xmlns="http://www.w3.org/2000/svg" xmlns:xlink="http://www.w3.org/1999/xlink" xmlns:sketch="http://www.bohemiancoding.com/sketch/ns">
    <!-- Generator: Sketch 3.0 (7574) - http://www.bohemiancoding.com/sketch -->
    <title>Behance</title>
    <description>Created with Sketch.</description>
    <defs></defs>
    <g id="Welcome" stroke="none" stroke-width="1" fill="none" fill-rule="evenodd" sketch:type="MSPage">
        <g id="Desktop" sketch:type="MSArtboardGroup" transform="translate(-503.000000, -3180.000000)" fill="#231F1F">
            <g id="Behance" sketch:type="MSLayerGroup" transform="translate(503.000000, 3180.000000)">
                <path d="M34.616,22 C31.442,22 31,25.167 31,25.167 L37.748,25.167 C37.748,25.167 37.791,22 34.616,22" id="Fill-120" sketch:type="MSShapeGroup"></path>
                <path d="M18.981,25.0000059 L13,25.0000059 L13,30.4920059 L18.297,30.4920059 C18.385,30.4920059 18.52,30.4950059 18.678,30.4920059 C19.53,30.4730059 21.146,30.2260059 21.146,27.8220059 C21.146,24.9710059 18.981,25.0000059 18.981,25.0000059" id="Fill-121" sketch:type="MSShapeGroup"></path>
                <path d="M24.625,0 C11.026,0 0,11.024 0,24.623 C0,38.223 11.026,49.248 24.625,49.248 C38.224,49.248 49.249,38.223 49.249,24.623 C49.249,11.024 38.224,0 24.625,0 L24.625,0 Z M29.809,15.13 L38.286,15.13 L38.286,17.66 L29.809,17.66 L29.809,15.13 Z M25.525,28.402 C25.525,34.674 18.998,34.467 18.998,34.467 L8.307,34.467 L8.307,13.921 L18.998,13.921 C22.247,13.921 24.812,15.714 24.812,19.39 C24.812,23.067 21.677,23.302 21.677,23.302 C25.81,23.302 25.525,28.402 25.525,28.402 L25.525,28.402 Z M41.381,28.066 L30.735,28.066 C30.735,31.883 34.35,31.642 34.35,31.642 C37.765,31.642 37.645,29.432 37.645,29.432 L41.262,29.432 C41.262,35.298 34.23,34.896 34.23,34.896 C25.794,34.896 26.335,27.041 26.335,27.041 C26.335,27.041 26.329,19.148 34.23,19.148 C42.546,19.148 41.381,28.066 41.381,28.066 L41.381,28.066 Z" id="Fill-122" sketch:type="MSShapeGroup"></path>
                <path d="M20.434,19.136 C20.434,17 18.981,17 18.981,17 L13,17 L13,21.585 L18.61,21.585 C19.58,21.585 20.434,21.275 20.434,19.136" id="Fill-123" sketch:type="MSShapeGroup"></path>
            </g>
        </g>
    </g>
</svg>