<?xml version="1.0" encoding="UTF-8" standalone="no"?>
<svg width="42px" height="41px" viewBox="0 0 42 41" version="1.1" xmlns="http://www.w3.org/2000/svg" xmlns:xlink="http://www.w3.org/1999/xlink" xmlns:sketch="http://www.bohemiancoding.com/sketch/ns">
    <!-- Generator: Sketch 3.0 (7574) - http://www.bohemiancoding.com/sketch -->
    <title>Behance</title>
    <description>Created with Sketch.</description>
    <defs></defs>
    <g id="Welcome" stroke="none" stroke-width="1" fill="none" fill-rule="evenodd" sketch:type="MSPage">
        <g id="Desktop" sketch:type="MSArtboardGroup" transform="translate(-763.000000, -2868.000000)" fill="#F2F2F2">
            <g id="footer" sketch:type="MSLayerGroup" transform="translate(0.000000, 2843.000000)">
                <g id="Social" transform="translate(630.000000, 25.000000)" sketch:type="MSShapeGroup">
                    <g id="Behance" transform="translate(133.333333, 0.000000)">
                        <path d="M28.2579592,17.9591837 C25.6669388,17.9591837 25.3061224,20.5444898 25.3061224,20.5444898 L30.8146939,20.5444898 C30.8146939,20.5444898 30.8497959,17.9591837 28.2579592,17.9591837" id="Fill-120"></path>
                        <path d="M15.4946939,20.408168 L10.6122449,20.408168 L10.6122449,24.8914333 L14.9363265,24.8914333 C15.0081633,24.8914333 15.1183673,24.8938823 15.2473469,24.8914333 C15.9428571,24.8759231 17.2620408,24.6742905 17.2620408,22.7118415 C17.2620408,20.3844946 15.4946939,20.408168 15.4946939,20.408168" id="Fill-121"></path>
                        <path d="M20.1020408,0 C9.00081633,0 0,8.99918367 0,20.1004082 C0,31.202449 9.00081633,40.202449 20.1020408,40.202449 C31.2032653,40.202449 40.2032653,31.202449 40.2032653,20.1004082 C40.2032653,8.99918367 31.2032653,0 20.1020408,0 L20.1020408,0 Z M24.3338776,12.3510204 L31.2538776,12.3510204 L31.2538776,14.4163265 L24.3338776,14.4163265 L24.3338776,12.3510204 Z M20.8367347,23.1853061 C20.8367347,28.3053061 15.5085714,28.1363265 15.5085714,28.1363265 L6.78122449,28.1363265 L6.78122449,11.3640816 L15.5085714,11.3640816 C18.1608163,11.3640816 20.2546939,12.8277551 20.2546939,15.8285714 C20.2546939,18.8302041 17.6955102,19.0220408 17.6955102,19.0220408 C21.0693878,19.0220408 20.8367347,23.1853061 20.8367347,23.1853061 L20.8367347,23.1853061 Z M33.7804082,22.9110204 L25.0897959,22.9110204 C25.0897959,26.0269388 28.0408163,25.8302041 28.0408163,25.8302041 C30.8285714,25.8302041 30.7306122,24.0261224 30.7306122,24.0261224 L33.6832653,24.0261224 C33.6832653,28.8146939 27.9428571,28.4865306 27.9428571,28.4865306 C21.0563265,28.4865306 21.4979592,22.0742857 21.4979592,22.0742857 C21.4979592,22.0742857 21.4930612,15.6310204 27.9428571,15.6310204 C34.7314286,15.6310204 33.7804082,22.9110204 33.7804082,22.9110204 L33.7804082,22.9110204 Z" id="Fill-122"></path>
                        <path d="M16.6808163,15.6212245 C16.6808163,13.877551 15.4946939,13.877551 15.4946939,13.877551 L10.6122449,13.877551 L10.6122449,17.6204082 L15.1918367,17.6204082 C15.9836735,17.6204082 16.6808163,17.3673469 16.6808163,15.6212245" id="Fill-123"></path>
                    </g>
                </g>
            </g>
        </g>
    </g>
</svg>