<?xml version="1.0" encoding="UTF-8" standalone="no"?>
<svg width="41px" height="41px" viewBox="0 0 41 41" version="1.1" xmlns="http://www.w3.org/2000/svg" xmlns:xlink="http://www.w3.org/1999/xlink" xmlns:sketch="http://www.bohemiancoding.com/sketch/ns">
    <!-- Generator: Sketch 3.0 (7574) - http://www.bohemiancoding.com/sketch -->
    <title>Instagram</title>
    <description>Created with Sketch.</description>
    <defs></defs>
    <g id="Welcome" stroke="none" stroke-width="1" fill="none" fill-rule="evenodd" sketch:type="MSPage">
        <g id="Desktop" sketch:type="MSArtboardGroup" transform="translate(-830.000000, -2868.000000)" fill="#F2F2F2">
            <g id="footer" sketch:type="MSLayerGroup" transform="translate(0.000000, 2843.000000)">
                <g id="Social" transform="translate(630.000000, 25.000000)" sketch:type="MSShapeGroup">
                    <g id="Instagram" transform="translate(200.000000, 0.000000)">
                        <path d="M28.1934694,15.9493878 L28.1934694,12.244898 L27.7118367,12.2473469 L24.4897959,12.2587755 L24.5020408,15.9616327 L28.1934694,15.9493878" id="Fill-124"></path>
                        <path d="M20.1730612,24.0187755 C22.2938776,24.0187755 24.0204082,22.2938776 24.0204082,20.1730612 C24.0204082,19.3355102 23.7477551,18.5616327 23.2914286,17.9297959 C22.5926531,16.962449 21.4563265,16.3265306 20.1730612,16.3265306 C18.8889796,16.3265306 17.7542857,16.962449 17.0546939,17.9297959 C16.5983673,18.5616327 16.3265306,19.3355102 16.3265306,20.1730612 C16.3265306,22.2938776 18.0530612,24.0187755 20.1730612,24.0187755" id="Fill-125"></path>
                        <path d="M20.1020408,0 C9,0 0,8.99918367 0,20.1004082 C0,31.202449 9,40.202449 20.1020408,40.202449 C31.2032653,40.202449 40.2032653,31.202449 40.2032653,20.1004082 C40.2032653,8.99918367 31.2032653,0 20.1020408,0 L20.1020408,0 Z M30.9297959,18.164898 L30.9297959,27.1118367 C30.9297959,29.4408163 29.0342857,31.3355102 26.7061224,31.3355102 L13.2979592,31.3355102 C10.9697959,31.3355102 9.07510204,29.4408163 9.07510204,27.1118367 L9.07510204,13.7044898 C9.07510204,11.3755102 10.9697959,9.48163265 13.2979592,9.48163265 L26.7061224,9.48163265 C29.0342857,9.48163265 30.9297959,11.3755102 30.9297959,13.7044898 L30.9297959,18.164898 L30.9297959,18.164898 Z" id="Fill-126"></path>
                        <path d="M26.2016327,20.202449 C26.2016327,23.4971429 23.5216327,26.1779592 20.2261224,26.1779592 C16.9306122,26.1779592 14.2514286,23.4971429 14.2514286,20.202449 C14.2514286,19.4089796 14.4089796,18.6538776 14.6906122,17.9591837 L11.4285714,17.9591837 L11.4285714,26.9061224 C11.4285714,28.0612245 12.3673469,29 13.5216327,29 L26.9297959,29 C28.084898,29 29.0236735,28.0612245 29.0236735,26.9061224 L29.0236735,17.9591837 L25.76,17.9591837 C26.042449,18.6538776 26.2016327,19.4089796 26.2016327,20.202449" id="Fill-127"></path>
                    </g>
                </g>
            </g>
        </g>
    </g>
</svg>