<?xml version="1.0" encoding="UTF-8" standalone="no"?>
<svg width="50px" height="50px" viewBox="0 0 50 50" version="1.1" xmlns="http://www.w3.org/2000/svg" xmlns:xlink="http://www.w3.org/1999/xlink" xmlns:sketch="http://www.bohemiancoding.com/sketch/ns">
    <!-- Generator: Sketch 3.0 (7574) - http://www.bohemiancoding.com/sketch -->
    <title>Instagram</title>
    <description>Created with Sketch.</description>
    <defs></defs>
    <g id="Welcome" stroke="none" stroke-width="1" fill="none" fill-rule="evenodd" sketch:type="MSPage">
        <g id="Desktop" sketch:type="MSArtboardGroup" transform="translate(-603.000000, -3180.000000)" fill="#231F1F">
            <g id="Instagram" sketch:type="MSLayerGroup" transform="translate(603.000000, 3180.000000)">
                <path d="M34.537,19.538 L34.537,15 L33.947,15.003 L30,15.017 L30.015,19.553 L34.537,19.538" id="Fill-124" sketch:type="MSShapeGroup"></path>
                <path d="M24.712,29.423 C27.31,29.423 29.425,27.31 29.425,24.712 C29.425,23.686 29.091,22.738 28.532,21.964 C27.676,20.779 26.284,20 24.712,20 C23.139,20 21.749,20.779 20.892,21.964 C20.333,22.738 20,23.686 20,24.712 C20,27.31 22.115,29.423 24.712,29.423" id="Fill-125" sketch:type="MSShapeGroup"></path>
                <path d="M24.625,0 C11.025,0 0,11.024 0,24.623 C0,38.223 11.025,49.248 24.625,49.248 C38.224,49.248 49.249,38.223 49.249,24.623 C49.249,11.024 38.224,0 24.625,0 L24.625,0 Z M37.889,22.252 L37.889,33.212 C37.889,36.065 35.567,38.386 32.715,38.386 L16.29,38.386 C13.438,38.386 11.117,36.065 11.117,33.212 L11.117,16.788 C11.117,13.935 13.438,11.615 16.29,11.615 L32.715,11.615 C35.567,11.615 37.889,13.935 37.889,16.788 L37.889,22.252 L37.889,22.252 Z" id="Fill-126" sketch:type="MSShapeGroup"></path>
                <path d="M32.097,24.748 C32.097,28.784 28.814,32.068 24.777,32.068 C20.74,32.068 17.458,28.784 17.458,24.748 C17.458,23.776 17.651,22.851 17.996,22 L14,22 L14,32.96 C14,34.375 15.15,35.525 16.564,35.525 L32.989,35.525 C34.404,35.525 35.554,34.375 35.554,32.96 L35.554,22 L31.556,22 C31.902,22.851 32.097,23.776 32.097,24.748" id="Fill-127" sketch:type="MSShapeGroup"></path>
            </g>
        </g>
    </g>
</svg>