<?xml version="1.0" encoding="UTF-8" standalone="no"?>
<svg width="42px" height="41px" viewBox="0 0 42 41" version="1.1" xmlns="http://www.w3.org/2000/svg" xmlns:xlink="http://www.w3.org/1999/xlink" xmlns:sketch="http://www.bohemiancoding.com/sketch/ns">
    <!-- Generator: Sketch 3.0 (7574) - http://www.bohemiancoding.com/sketch -->
    <title>LinkedIn</title>
    <description>Created with Sketch.</description>
    <defs></defs>
    <g id="Welcome" stroke="none" stroke-width="1" fill="none" fill-rule="evenodd" sketch:type="MSPage">
        <g id="Desktop" sketch:type="MSArtboardGroup" transform="translate(-696.000000, -2868.000000)" fill="#F2F2F2">
            <g id="footer" sketch:type="MSLayerGroup" transform="translate(0.000000, 2843.000000)">
                <g id="Social" transform="translate(630.000000, 25.000000)" sketch:type="MSShapeGroup">
                    <g id="LinkedIn" transform="translate(66.666667, 0.000000)">
                        <path d="M20.1020408,0 C9,0 0,9 0,20.1012245 C0,31.204898 9,40.2040816 20.1020408,40.2040816 C31.2032653,40.2040816 40.2032653,31.204898 40.2032653,20.1012245 C40.2032653,9 31.2032653,0 20.1020408,0 L20.1020408,0 Z M31.2979592,29.8653061 C31.2979592,30.76 30.5559184,31.4840816 29.64,31.4840816 L10.524898,31.4840816 C9.60816327,31.4840816 8.86612245,30.76 8.86612245,29.8653061 L8.86612245,10.5273469 C8.86612245,9.63428571 9.60816327,8.90938776 10.524898,8.90938776 L29.64,8.90938776 C30.5559184,8.90938776 31.2979592,9.63428571 31.2979592,10.5273469 L31.2979592,29.8653061 L31.2979592,29.8653061 Z" id="Fill-94"></path>
                        <path d="M23.5836735,17.1428571 C21.7869388,17.1428571 20.9820408,18.1297959 20.5306122,18.8244898 L20.5306122,18.8579592 L20.5085714,18.8579592 C20.5167347,18.8489796 20.5232653,18.8359184 20.5306122,18.8244898 L20.5306122,17.3820408 L17.1428571,17.3820408 C17.1869388,18.3363265 17.1428571,27.5730612 17.1428571,27.5730612 L20.5306122,27.5730612 L20.5306122,21.8808163 C20.5306122,21.5755102 20.5526531,21.2734694 20.642449,21.0555102 C20.8873469,20.4481633 21.4457143,19.8146939 22.3804082,19.8146939 C23.6081633,19.8146939 24.0971429,20.7502041 24.0971429,22.12 L24.0971429,27.5730612 L27.484898,27.5730612 L27.484898,21.7297959 C27.484898,18.5983673 25.8130612,17.1428571 23.5836735,17.1428571" id="Fill-95"></path>
                        <path d="M14.1616327,13.0612245 C13.0032653,13.0612245 12.244898,13.8228571 12.244898,14.8228571 C12.244898,15.8 12.9804082,16.5844898 14.1167347,16.5844898 L14.1387755,16.5844898 C15.32,16.5844898 16.0563265,15.8 16.0563265,14.8228571 C16.0342857,13.8228571 15.32,13.0612245 14.1616327,13.0612245" id="Fill-96"></path>
                        <path d="M12.244898,17.9591837 L15.6334694,17.9591837 L15.6334694,28.1502041 L12.244898,28.1502041 L12.244898,17.9591837 Z" id="Fill-97"></path>
                    </g>
                </g>
            </g>
        </g>
    </g>
</svg>