<?xml version="1.0" encoding="UTF-8" standalone="no"?>
<svg width="50px" height="50px" viewBox="0 0 50 50" version="1.1" xmlns="http://www.w3.org/2000/svg" xmlns:xlink="http://www.w3.org/1999/xlink" xmlns:sketch="http://www.bohemiancoding.com/sketch/ns">
    <!-- Generator: Sketch 3.0 (7574) - http://www.bohemiancoding.com/sketch -->
    <title>LinkedIn</title>
    <description>Created with Sketch.</description>
    <defs></defs>
    <g id="Welcome" stroke="none" stroke-width="1" fill="none" fill-rule="evenodd" sketch:type="MSPage">
        <g id="Desktop" sketch:type="MSArtboardGroup" transform="translate(-432.000000, -3179.000000)" fill="#231F1F">
            <g id="LinkedIn" sketch:type="MSLayerGroup" transform="translate(432.000000, 3179.000000)">
                <path d="M24.625,0 C11.025,0 0,11.025 0,24.624 C0,38.226 11.025,49.25 24.625,49.25 C38.224,49.25 49.249,38.226 49.249,24.624 C49.249,11.025 38.224,0 24.625,0 Z M31.3055589,19.8362433 C28.5633318,19.8362433 27.3348738,21.3425371 26.6458908,22.4027984 L26.6458908,22.4538804 L26.6122515,22.4538804 C26.6247105,22.4401755 26.6346777,22.420241 26.6458908,22.4027984 L26.6458908,20.2012921 L21.4754034,20.2012921 C21.5426821,21.6577499 21.4754034,35.7551148 21.4754034,35.7551148 L26.6458908,35.7551148 L26.6458908,27.0674502 C26.6458908,26.6014834 26.6795301,26.1405001 26.8165792,25.8078447 C27.1903493,24.8808947 28.0425453,23.9140758 29.4691015,23.9140758 C31.3429359,23.9140758 32.0892304,25.3418779 32.0892304,27.432499 L32.0892304,35.7551148 L37.2597177,35.7551148 L37.2597177,26.8369586 C37.2597177,22.057684 34.7081134,19.8362433 31.3055589,19.8362433 Z M16.9253745,12.3608398 C15.1574416,12.3608398 14,13.5232651 14,15.0494933 C14,16.5408363 15.1225564,17.7381467 16.85685,17.7381467 L16.8904893,17.7381467 C18.6933074,17.7381467 19.8171098,16.5408363 19.8171098,15.0494933 C19.7834704,13.5232651 18.6933074,12.3608398 16.9253745,12.3608398 Z M14.3226882,20.3121773 L19.4944215,20.3121773 L19.4944215,35.866 L14.3226882,35.866 L14.3226882,20.3121773 Z" id="Fill-94" sketch:type="MSShapeGroup"></path>
            </g>
        </g>
    </g>
</svg>