<?xml version="1.0" encoding="UTF-8" standalone="no"?>
<svg width="180px" height="180px" viewBox="0 0 180 180" version="1.1" xmlns="http://www.w3.org/2000/svg" xmlns:xlink="http://www.w3.org/1999/xlink" xmlns:sketch="http://www.bohemiancoding.com/sketch/ns">
    <!-- Generator: Sketch 3.0 (7574) - http://www.bohemiancoding.com/sketch -->
    <title>logo</title>
    <description>Created with Sketch.</description>
    <defs></defs>
    <g id="Welcome" stroke="none" stroke-width="1" fill="none" fill-rule="evenodd" sketch:type="MSPage">
        <g id="Desktop" sketch:type="MSArtboardGroup" transform="translate(-391.000000, -139.000000)">
            <g id="intro" sketch:type="MSLayerGroup" transform="translate(0.000000, -1.000000)">
                <g id="logo" transform="translate(391.000000, 140.000000)" sketch:type="MSShapeGroup">
                    <path d="M90,180 C139.70563,180 180,139.70563 180,90 C180,40.2943701 139.70563,0 90,0 C40.2943701,0 0,40.2943701 0,90 C0,139.70563 40.2943701,180 90,180 Z" id="oval" stroke="#222222" stroke-width="3" fill="#222222"></path>
                    <path d="M60.8244265,38.7691191 L42.8895086,128.822615 L62.2137511,128.822615 L68.7814675,91.0582459 L89.4950347,130.464544 L110.208602,91.0582459 L116.776318,128.822615 L136.100561,128.822615 L118.165643,38.7691191 L89.4950347,91.4371526 L60.8244265,38.7691191 Z" id="shape" fill="#FFFFFF"></path>
                    <path d="M93.5298466,114.432563 L92.261001,107.695135 L99.8352591,110.605681 L92.261001,107.695135 L92.261001,107.695135 L93.5298466,114.432563 L99.3828731,110.605681 L93.5298466,114.432563 L94.6328194,120.289226 L93.5298466,114.432563 L89.6025949,117.000316 L94.6328194,120.289226 L89.6025949,117.000316 L84.22794,120.514424 L89.6025949,117.000316 L85.3309129,114.207364 L84.22794,120.064027 L85.3309129,114.207364 L79.4778864,110.380483 L85.3309129,114.207364 L85.3309129,114.207364 L86.569138,107.632527 L89.3653817,106.58244 L86.9422564,105.65131 L86.569138,107.632527 L79.2516934,110.380483 L86.569138,107.632527 L86.9422564,105.65131 L89.3653817,106.58244 L86.569138,107.632527 L85.3309129,114.207364 L89.6025949,117.000316 L93.5298466,114.432563 Z M91.0340303,101.180057 L97.3667027,96.2350889 L89.6325967,91.3659032 L89.6565728,91.2385929 L89.6325967,91.3659032 L89.5627124,91.321906 L98.5976636,81.6347305 L102.108556,92.5323371 L102.108556,92.5323371 L112.358897,84.528195 L101.066851,78.9872946 L103.373124,76.5145339 L97.3471358,77.0510745 L103.373124,76.5145339 L109.21886,70.2468003 L113.888433,75.5782744 L103.373124,76.5145339 L101.066851,78.9872946 L112.358897,84.528195 L117.922294,80.1839273 L117.922294,80.1839273 L121.05819,83.7643294 L121.05819,83.7643294 L125.168879,74.5738887 L121.05819,83.7643294 L128.787967,92.5897851 L121.05819,83.7643294 L119.212362,87.8911259 L112.358897,84.528195 L117.922294,80.1839273 L113.888433,75.5782744 L103.373124,76.5145339 L103.373124,76.5145339 L109.21886,70.2468003 L107.530246,68.3188286 L107.530246,68.3188286 L109.356283,66.7869867 L104.132927,64.2147483 L109.356283,66.7869867 L116.6693,60.65218 L115.819567,59.2603768 L104.35912,64.2147483 L115.819567,59.2603768 L111.144911,51.6036208 L115.819567,59.2603768 L120.995914,57.0226326 L116.6693,60.65218 L115.819567,59.2603768 L115.819567,59.2603768 L120.995914,57.0226326 L121.54979,56.5579923 L120.995914,57.0226326 L121.54979,56.7831911 L120.995914,57.0226326 L116.6693,60.65218 L117.26202,61.623013 L117.26202,61.623013 L121.775983,56.7831911 L117.26202,61.623013 L125.148797,74.5409972 L125.130732,74.5551036 L111.473367,67.8295431 L117.26202,61.623013 L125.148797,74.5409972 L125.395072,74.34869 L125.148797,74.5409972 L125.168879,74.5738887 L125.148797,74.5409972 L125.148797,74.5409972 L125.130732,74.5551036 L125.168879,74.5738887 L125.130732,74.5551036 L125.09867,74.5801399 L125.168879,74.5738887 L125.09867,74.5801399 L117.922294,80.1839273 L113.888433,75.5782744 L125.09867,74.5801399 L125.130732,74.5551036 L125.130732,74.5551036 L111.473367,67.8295431 L109.21886,70.2468003 L113.888433,75.5782744 L125.09867,74.5801399 L117.922294,80.1839273 L121.05819,83.7643294 L119.212362,87.8911259 L128.787967,92.5897851 L119.212362,87.8911259 L115.7238,95.6906533 L119.243955,98.8377135 L119.243955,98.8377135 L128.787967,92.5897851 L119.243955,98.8377135 L115.7238,95.6906533 L114.874962,97.588436 L116.811674,100.429991 L119.243955,98.8377135 L122.926793,102.130215 L128.787967,92.5897851 L122.926793,102.130215 L132.407056,110.605681 L122.926793,102.130215 L120.577178,105.954762 L116.811674,100.429991 L119.243955,98.8377135 L122.926793,102.130215 L120.577178,105.954762 L120.952372,106.505248 L132.407056,110.605681 L120.952372,106.505248 L120.952372,106.505248 L127.560287,116.200421 L127.560287,116.200421 L132.407056,110.605681 L127.560287,116.200421 L120.952372,106.505248 L120.367591,106.295914 L120.577178,105.954762 L120.952372,106.505248 L120.367591,106.295914 L114.537806,115.785252 L120.367591,106.295914 L112.275876,103.399323 L120.367591,106.295914 L120.577178,105.954762 L120.577178,105.954762 L116.811674,100.429991 L116.811674,100.429991 L112.275876,103.399323 L116.811674,100.429991 L114.874962,97.588436 L112.275876,103.399323 L114.874962,97.588436 L110.240139,90.7881955 L114.874962,97.588436 L115.7238,95.6906533 L110.240139,90.7881955 L115.7238,95.6906533 L119.212362,87.8911259 L112.358897,84.528195 L102.108556,92.5323371 L104.771196,100.797019 L104.671963,100.834285 L104.671963,100.834285 L104.811506,100.922137 L104.671963,100.834285 L92.9850275,105.223137 L92.9850275,105.223137 L91.5888517,104.126097 L91.0340303,101.180057 L89.431789,102.431193 L87.791431,101.142287 L87.2240227,104.155162 L85.8469955,105.230436 L74.0492537,100.696938 L85.8469955,105.230436 L79.2516934,110.380483 L85.8469955,105.230436 L86.9422564,105.65131 L87.2240227,104.155162 L85.8469955,105.230436 L86.9422564,105.65131 L87.2240227,104.155162 L89.431789,102.431193 L87.791431,101.142287 L87.791431,101.142287 L87.2240227,104.155162 L89.431789,102.431193 L89.431789,102.431193 L91.5888517,104.126097 L91.0340303,101.180057 L97.3667027,96.2350889 L104.671963,100.834285 L104.771196,100.797019 L104.811506,100.922137 L104.771196,100.797019 L105.037699,100.696938 L104.771196,100.797019 L102.108556,92.5323371 L97.3667027,96.2350889 L104.671963,100.834285 L92.9850275,105.223137 L99.8352591,110.605681 L92.9850275,105.223137 L91.8740289,105.640356 L91.5888517,104.126097 L92.9850275,105.223137 L91.8740289,105.640356 L92.261001,107.695135 L89.3653817,106.58244 L91.8740289,105.640356 L92.261001,107.695135 L89.3653817,106.58244 L91.8740289,105.640356 L91.5888517,104.126097 L89.431789,102.431193 L91.0340303,101.180057 L89.4091742,92.552252 L89.6325967,91.3659032 L97.3667027,96.2350889 L97.3667027,96.2350889 L102.108556,92.5323371 L98.5976636,81.6347305 L101.066851,78.9872946 L101.066851,78.9872946 L97.1209428,77.0510745 L101.066851,78.9872946 L98.5976636,81.6347305 L97.1209428,77.0510745 L98.5976636,81.6347305 L89.5627124,91.321906 L89.4303797,91.2385929 L89.5627124,91.321906 L89.4303797,91.4637916 L89.5627124,91.321906 L89.6325967,91.3659032 L89.4091742,92.552252 L89.2041867,91.4637916 L89.4091742,92.552252 L87.791431,101.142287 L81.3638683,96.0918534 L74.0492537,100.696938 L81.3638683,96.0918534 L87.791431,101.142287 L87.791431,101.142287 L89.4091742,92.552252 L91.0340303,101.180057 L91.0340303,101.180057 Z M107.530246,68.3188286 L104.132927,64.439947 L107.530246,68.3188286 L97.1209428,77.0510745 L107.530246,68.3188286 L107.530246,68.3188286 Z M107.530246,68.3188286 L109.21886,70.2468003 L111.473367,67.8295431 L109.356283,66.7869867 L116.6693,60.65218 L117.26202,61.623013 L111.473367,67.8295431 L109.356283,66.7869867 L107.530246,68.3188286 L107.530246,68.3188286 Z M123.356353,121.053121 L136.026144,128.621578 L123.356353,121.053121 L116.799736,128.621578 L123.356353,121.053121 L123.356353,121.053121 Z M123.356353,121.053121 L114.537806,115.785252 L123.356353,121.053121 L127.560287,116.200421 L136.026144,128.621578 L127.560287,116.200421 L123.356353,121.053121 L123.356353,121.053121 Z M89.2980471,91.0967073 L80.2630959,81.4095318 L76.7107822,92.4357079 L66.4148312,84.3457019 L59.6483975,87.6659272 L63.1369599,95.4654546 L59.6168049,98.6125148 L59.6168049,98.6125148 L50.0727925,92.3645864 L59.6168049,98.6125148 L63.1369599,95.4654546 L63.9857977,97.3632373 L62.049086,100.204792 L59.6168049,98.6125148 L55.9339662,101.905016 L58.2835812,105.729564 L62.049086,100.204792 L59.6168049,98.6125148 L55.9339662,101.905016 L58.2835812,105.729564 L57.908388,106.280049 L46.453704,110.380483 L57.908388,106.280049 L57.908388,106.280049 L51.3004728,115.975222 L51.3004728,115.975222 L46.453704,110.380483 L51.3004728,115.975222 L57.908388,106.280049 L58.4931683,106.070716 L58.2835812,105.729564 L57.908388,106.280049 L58.4931683,106.070716 L64.3229534,115.560053 L58.4931683,106.070716 L66.5848837,103.174124 L58.4931683,106.070716 L58.2835812,105.729564 L58.2835812,105.729564 L62.049086,100.204792 L62.049086,100.204792 L66.5848837,103.174124 L62.049086,100.204792 L63.9857977,97.3632373 L63.9857977,97.3632373 L66.5848837,103.174124 L63.9857977,97.3632373 L68.620621,90.5629968 L63.9857977,97.3632373 L63.1369599,95.4654546 L68.620621,90.5629968 L63.1369599,95.4654546 L59.6483975,87.6659272 L66.4148312,84.3457019 L60.8949171,80.0084494 L57.8025693,83.5391307 L57.8025693,83.5391307 L59.6483975,87.6659272 L50.0727925,92.3645864 L59.6483975,87.6659272 L57.8025693,83.5391307 L60.8949171,80.0084494 L53.691881,74.34869 L60.8949171,80.0084494 L64.9723269,75.3530757 L75.4876351,76.2893352 L69.6418994,70.0216016 L64.9723269,75.3530757 L75.4876351,76.2893352 L75.4876351,76.2893352 L77.7939082,78.7620959 L81.7398167,76.8258758 L77.7939082,78.7620959 L80.2630959,81.4095318 L80.2630959,81.4095318 L76.7107822,92.4357079 L66.4148312,84.3457019 L77.7939082,78.7620959 L77.7939082,78.7620959 L80.2630959,81.4095318 L81.7398167,76.8258758 L80.2630959,81.4095318 L89.2980471,91.0967073 L81.3638683,96.0918534 L76.7107822,92.4357079 L74.0492537,100.696938 L76.7107822,92.4357079 L76.7107822,92.4357079 L81.3638683,96.0918534 L89.2980471,91.0967073 L89.4303797,91.2385929 L89.2980471,91.0967073 L89.4303797,91.0133942 L89.2980471,91.0967073 L89.2980471,91.0967073 Z M71.3305137,68.0936299 L69.6418994,70.0216016 L75.4876351,76.2893352 L81.5136237,76.8258758 L75.4876351,76.2893352 L77.7939082,78.7620959 L66.4148312,84.3457019 L60.8949171,80.0084494 L64.9723269,75.3530757 L64.9723269,75.3530757 L53.691881,74.34869 L64.9723269,75.3530757 L69.6418994,70.0216016 L67.3873927,67.6043444 L69.5044764,66.561788 L62.1914595,60.4269813 L63.0411929,59.0351781 L63.0411929,59.0351781 L57.8648455,56.7974339 L62.1914595,60.4269813 L61.5987398,61.3978143 L61.5987398,61.3978143 L57.0847764,56.5579923 L61.5987398,61.3978143 L53.691881,74.34869 L61.5987398,61.3978143 L67.3873927,67.6043444 L53.691881,74.34869 L67.3873927,67.6043444 L61.5987398,61.3978143 L62.1914595,60.4269813 L57.8648455,56.7974339 L57.3109694,56.5579923 L57.8648455,56.7974339 L57.3109694,56.3327936 L57.8648455,56.7974339 L63.0411929,59.0351781 L62.1914595,60.4269813 L69.5044764,66.561788 L67.3873927,67.6043444 L69.6418994,70.0216016 L71.3305137,68.0936299 L69.5044764,66.561788 L74.7278328,63.9895496 L69.5044764,66.561788 L71.3305137,68.0936299 L74.7278328,64.2147483 L71.3305137,68.0936299 L81.7398167,76.8258758 L71.3305137,68.0936299 L71.3305137,68.0936299 Z M63.0411929,59.0351781 L67.7158488,51.3784221 L63.0411929,59.0351781 L74.5016397,63.9895496 L63.0411929,59.0351781 L63.0411929,59.0351781 Z M57.8025693,83.5391307 L50.0727925,92.3645864 L57.8025693,83.5391307 L53.691881,74.34869 L57.8025693,83.5391307 L57.8025693,83.5391307 Z M55.9339662,101.905016 L46.453704,110.380483 L55.9339662,101.905016 L50.0727925,92.3645864 L55.9339662,101.905016 Z M55.5044063,120.827922 L42.8346155,128.396379 L55.5044063,120.827922 L62.0610231,128.396379 L55.5044063,120.827922 L55.5044063,120.827922 Z M55.5044063,120.827922 L64.3229534,115.560053 L55.5044063,120.827922 L51.3004728,115.975222 L42.8346155,128.396379 L51.3004728,115.975222 L55.5044063,120.827922 L55.5044063,120.827922 Z M57.3109694,56.3327936 L67.7158488,51.3784221 L57.3109694,56.3327936 Z M121.54979,56.5579923 L111.144911,51.6036208 L121.54979,56.5579923 Z" id="lines" stroke="#222222" stroke-width="0.4" stroke-linecap="square"></path>
                </g>
            </g>
        </g>
    </g>
</svg>