<?xml version="1.0" encoding="UTF-8" standalone="no"?>
<svg width="50px" height="50px" viewBox="0 0 50 50" version="1.1" xmlns="http://www.w3.org/2000/svg" xmlns:xlink="http://www.w3.org/1999/xlink" xmlns:sketch="http://www.bohemiancoding.com/sketch/ns">
    <!-- Generator: Sketch 3.0 (7574) - http://www.bohemiancoding.com/sketch -->
    <title>Twitter</title>
    <description>Created with Sketch.</description>
    <defs></defs>
    <g id="Welcome" stroke="none" stroke-width="1" fill="none" fill-rule="evenodd" sketch:type="MSPage">
        <g id="Desktop" sketch:type="MSArtboardGroup" transform="translate(-360.000000, -3183.000000)" fill="#231F1F">
            <g id="Twitter" sketch:type="MSLayerGroup" transform="translate(360.000000, 3183.000000)">
                <path d="M25.046,0 C11.447,0 0.421,11.027 0.421,24.625 C0.421,38.224 11.447,49.248 25.046,49.248 C38.646,49.248 49.669,38.224 49.669,24.625 C49.669,11.027 38.646,0 25.046,0 L25.046,0 Z M37.451,19.66 C37.464,19.927 37.469,20.194 37.469,20.463 C37.469,28.664 31.227,38.12 19.812,38.12 C16.308,38.12 13.046,37.092 10.299,35.332 C10.785,35.388 11.279,35.418 11.779,35.418 C14.688,35.418 17.363,34.425 19.487,32.761 C16.772,32.711 14.48,30.917 13.691,28.452 C14.069,28.526 14.457,28.564 14.858,28.564 C15.424,28.564 15.971,28.489 16.493,28.346 C13.653,27.775 11.514,25.266 11.514,22.261 C11.514,22.234 11.514,22.209 11.515,22.182 C12.351,22.647 13.308,22.927 14.326,22.96 C12.661,21.844 11.565,19.947 11.565,17.794 C11.565,16.656 11.871,15.589 12.405,14.674 C15.466,18.428 20.039,20.898 25.197,21.157 C25.091,20.703 25.036,20.229 25.036,19.743 C25.036,16.316 27.815,13.538 31.241,13.538 C33.027,13.538 34.639,14.291 35.771,15.497 C37.186,15.22 38.513,14.702 39.712,13.991 C39.249,15.441 38.265,16.657 36.983,17.425 C38.239,17.274 39.435,16.94 40.548,16.447 C39.717,17.691 38.664,18.785 37.451,19.66 L37.451,19.66 Z" id="Fill-154" sketch:type="MSShapeGroup"></path>
            </g>
        </g>
    </g>
</svg>