<?xml version="1.0" encoding="UTF-8" standalone="no"?>
<svg width="41px" height="41px" viewBox="0 0 41 41" version="1.1" xmlns="http://www.w3.org/2000/svg" xmlns:xlink="http://www.w3.org/1999/xlink" xmlns:sketch="http://www.bohemiancoding.com/sketch/ns">
    <!-- Generator: Sketch 3.0 (7574) - http://www.bohemiancoding.com/sketch -->
    <title>Twitter</title>
    <description>Created with Sketch.</description>
    <defs></defs>
    <g id="Welcome" stroke="none" stroke-width="1" fill="none" fill-rule="evenodd" sketch:type="MSPage">
        <g id="Desktop" sketch:type="MSArtboardGroup" transform="translate(-630.000000, -2868.000000)" fill="#F2F2F2">
            <g id="footer" sketch:type="MSLayerGroup" transform="translate(0.000000, 2843.000000)">
                <g id="Social" transform="translate(630.000000, 25.000000)" sketch:type="MSShapeGroup">
                    <g id="Twitter">
                        <path d="M20.1020408,0 C9.00081633,0 0,9.00163265 0,20.1020408 C0,31.2032653 9.00081633,40.202449 20.1020408,40.202449 C31.2040816,40.202449 40.202449,31.2032653 40.202449,20.1020408 C40.202449,9.00163265 31.2040816,0 20.1020408,0 L20.1020408,0 Z M30.2285714,16.0489796 C30.2391837,16.2669388 30.2432653,16.484898 30.2432653,16.7044898 C30.2432653,23.3991837 25.1477551,31.1183673 15.8293878,31.1183673 C12.9689796,31.1183673 10.3061224,30.2791837 8.06367347,28.842449 C8.46040816,28.8881633 8.86367347,28.9126531 9.27183673,28.9126531 C11.6465306,28.9126531 13.8302041,28.1020408 15.5640816,26.7436735 C13.3477551,26.7028571 11.4767347,25.2383673 10.8326531,23.2261224 C11.1412245,23.2865306 11.4579592,23.317551 11.7853061,23.317551 C12.2473469,23.317551 12.6938776,23.2563265 13.12,23.1395918 C10.8016327,22.6734694 9.0555102,20.6253061 9.0555102,18.1722449 C9.0555102,18.1502041 9.0555102,18.1297959 9.05632653,18.1077551 C9.73877551,18.4873469 10.52,18.7159184 11.3510204,18.7428571 C9.99183673,17.8318367 9.09714286,16.2832653 9.09714286,14.5257143 C9.09714286,13.5967347 9.34693878,12.7257143 9.78285714,11.9787755 C12.2816327,15.0432653 16.0146939,17.0595918 20.2253061,17.2710204 C20.1387755,16.9004082 20.0938776,16.5134694 20.0938776,16.1167347 C20.0938776,13.3191837 22.362449,11.0514286 25.1591837,11.0514286 C26.6171429,11.0514286 27.9330612,11.6661224 28.8571429,12.6506122 C30.0122449,12.4244898 31.0955102,12.0016327 32.0742857,11.4212245 C31.6963265,12.604898 30.8930612,13.597551 29.8465306,14.2244898 C30.8718367,14.1012245 31.8481633,13.8285714 32.7567347,13.4261224 C32.0783673,14.4416327 31.2187755,15.3346939 30.2285714,16.0489796 L30.2285714,16.0489796 Z" id="Fill-154"></path>
                    </g>
                </g>
            </g>
        </g>
    </g>
</svg>